# xmcd
#
# Track frame offsets:
#	150
#	21296
#	39104
#	58208
#	69042
#	90687
#	113854
#	138446
#	153827
#
# Disc length: 2444 seconds
#
# Revision: 0
# Processed by: cddbd v1.5.1PL0 Copyright (c) Steve Scherf et al.
# Submitted via: dBpowerAMP V4.0
#
DISCID=6b098a09
DTITLE=Bobby Rush - Rush Hour
DYEAR=1900
DGENRE=R&B
TTITLE0=I Wanna Do The Do
TTITLE1=I Can't Find My Keys
TTITLE2=Let's Do It Together
TTITLE3=Intermission
TTITLE4=Nickname
TTITLE5=Evil Is
TTITLE6=No Axe Ta' Grind
TTITLE7=Hey Western Union Man (Send a Telegram)
TTITLE8=I Wanna Do The Do (extended Remix)
EXTD=
EXTT0=
EXTT1=
EXTT2=
EXTT3=
EXTT4=
EXTT5=
EXTT6=
EXTT7=
EXTT8=
PLAYORDER=
